<svg xmlns="http://www.w3.org/2000/svg" viewBox="5 5 363 363">
<style>
    path {
      fill: black;
    }
    @media (prefers-color-scheme: dark) {
      path {
        fill: white;
      }
    }
  </style>
  <path d="m307.6 51.2c-31.4-28.6-69.1-44.2-111.7-46-57.4-2.5-106 17.8-144.4 60.1-31 34-46.2 74.9-46.5 124.9.6 50 20.8 95.5 60.5 131.5 31.2 28.3 68.5 44 110.7 46 57.8 2.8 106.7-17.5 145.6-60.1 28.4-31.1 44-68.5 46-110.7 2.8-57.8-17.5-106.8-60.2-145.7zm36.6 74.8c2.8 6.8 4.5 13.8 6.3 20.9 3.9 16.1 5.6 32.4 4.7 48.8-.4 7.7-1.5 15.5-3 23.1-1.1 5.8-2.6 11.6-4.3 17.3-1.7 5.6-3.8 11.1-6.2 16.5-3 6.9-6.4 13.5-10.1 20-3.8 6.7-8.2 13-13 18.9-5 6.1-10.2 12-16 17.4-8.7 7.9-17.8 15.2-27.9 21.3-8.8 5.4-18.1 10.1-27.7 13.8-6.8 2.6-13.9 4.7-21.1 6.4-16.2 3.9-32.6 5.5-49.1 4.6-7.6-.4-15.3-1.5-22.9-3-5.8-1.2-11.6-2.5-17.3-4.3-5.5-1.7-11.1-3.8-16.4-6.1-6.9-3-13.6-6.3-19.9-10.1-6.5-3.9-12.8-8.1-18.7-12.8-6.2-5-12.2-10.2-17.6-16.2-7.7-8.5-14.9-17.5-20.9-27.4-2.4-4-4.5-8.2-7.3-12.5 9.5 0 18.7 0 27.9 0 1.1 0 1.6.4 2.3 1.3 3.6 5.4 7.4 10.8 11.7 15.7 7 7.8 14.4 15 22.8 21.3 5.6 4.1 11.3 8 17.4 11.3 7.8 4.3 15.9 7.7 24.4 10.4 6.3 2 12.7 3.8 19.2 4.9 11.8 2 23.7 3 35.7 1.8 5.1-.5 10.1-1.1 15.1-2 9.5-1.8 18.7-4.5 27.8-8.1 10.8-4.3 20.7-9.9 30.1-16.6 8.6-6.1 16.2-13.2 23.2-21 6.8-7.5 12.6-15.6 17.5-24.3 4.8-8.4 8.6-17.2 11.6-26.4 2.1-6.4 3.9-12.9 5-19.5 1.9-11.8 3-23.6 1.8-35.7-.7-6.8-1.8-13.6-3.1-20.3-.3-1.6-1.1-3-1-4.9.1-1.2-.9-2.4-3.2-2.5-23.2-1-46.5-.1-69.7-.4-13.5-.2-23.8 5.9-30.8 17-6.5 10.3-7.8 21.6-4.4 33.6 2 7.1 5.3 13 10.7 17.9 5 4.5 10.7 7.2 17.3 8.7 7.4 1.7 14.3.6 21.3-.9 3.8-.8 7.4-2.5 10.7-4.8 1.1-.8 1.3-1.6 1.3-2.8 0-4.5-.1-9.1 0-13.6.1-1.9-.6-2.5-2.4-2.4-7.3.1-14.7-.1-22.1.1-2.1 0-2.9-.4-2.8-2.7.1-6.1.1-12.3 0-18.4 0-1.4.3-1.9 1.8-1.9 16.5.1 33 .1 49.6 0 1.8 0 1.9.8 1.9 2.1 0 16.3 0 32.6 0 49 0 1.6-.7 2.6-1.8 3.5-9.5 7.4-19.9 13.2-31.6 15.9-9.3 2.1-18.9 3.2-28.6 1.5-6.5-1.1-12.9-2.4-18.8-5-7.1-3.1-13.5-7.5-18.9-13.1-6.7-6.9-11.4-15.1-14.3-24.2-2.8-9.1-3.3-18.6-2.3-28.2.7-7.2 2.7-13.9 5.7-20.4 3.5-7.4 8.4-13.8 14.5-19.3 6-5.5 13.1-9.3 20.4-12.3 3-1.2 6.3-2.3 9.7-2.5 4.2-.4 8.2-1.4 12.5-1.4 29.6.1 59.3.1 88.9 0 2.7 0 3.6 1.3 4.3 3.1zm-6.9-15.6c-9.5 0-18.6-.1-27.6.1-1.6 0-2.3-.9-2.9-1.9-6.3-9.7-13.6-18.4-22.1-26.3-7.9-7.4-16.5-13.7-25.8-19.3-8.2-4.9-16.7-8.9-25.7-11.9-8.5-2.9-17.2-4.9-26.2-6.3-8.6-1.3-17.2-1.9-25.8-1.5-8.2.3-16.3 1.5-24.3 3.2-6.9 1.5-13.6 3.4-20.2 5.8-8.7 3.2-17 7.2-24.9 12.2-6.3 4-12.4 8.2-18 13.1-8 7-15.3 14.7-21.7 23.2-6.9 9.2-12.6 18.9-17.2 29.4-2.6 5.9-4.5 12.1-6.3 18.4-2.8 9.6-4.2 19.3-5.1 29.1-.6 6.4-.5 12.8.1 19.3.5 5.4 1.3 10.7 2.1 16.1.5 3.1 1.2 6.3 1.9 9.3.5 2.1 1.3 2.8 4.3 3.1 2.9-.3 5.5 0 8.3 0 23.9 0 47.8-.1 71.7 0 12.3.1 22.5-4.5 31.1-13.1 1.1-1.1 2.4-1.2 3.5 0 4.4 5 9.2 9.6 13.9 14.3 1.1 1.1.9 2-.1 3.1-7 6.9-14.6 12.9-23.9 16.3-6.4 2.3-13 3.9-19.8 3.9-34.6.2-69.1.1-103.7.2-2.5 0-3.9-.9-4.2-3-.8-4.3-2.8-8.1-4-12.2-1.2-4.2-2.1-8.4-3.1-12.6-1.6-6.8-2.3-13.7-3.1-20.6-1.1-10.3-1-20.4.1-30.7.7-6.7 1.5-13.5 3-20.1 1.3-5.6 2.7-11.1 4.6-16.5 2.3-6.6 4.8-13 7.7-19.4 3.8-8.2 8.2-16 13.2-23.4 6.3-9.2 13.4-17.7 21.4-25.5 9.1-8.8 18.9-16.5 29.7-23.2 8.8-5.5 18.1-10 27.7-13.9 7.9-3.2 16.2-5.7 24.5-7.4 15.1-3 30.3-4.8 45.7-3.6 7.6.6 15.3 1.5 22.9 3 5.8 1.1 11.6 2.6 17.2 4.3 5.5 1.6 10.8 3.7 16.1 6 7 3 13.7 6.4 20.3 10.2 6.6 3.8 12.9 8.1 18.7 12.8 6.1 5 12 10.2 17.4 16 8 8.6 15.3 17.7 21.3 27.8 2.3 3.9 4.6 7.9 7.1 12.2zm-237.7 91.7c1.4 4.1 3.7 7.8 7 11.6-10.2 0-19.7-.2-29.1.1-3.1.1-4.4-1.6-4.8-3.8-1.1-5-2.7-9.9-3.4-15-1-7.3-.5-14.4.9-21.5 2-10.5 6.4-19.9 13.2-28 5.4-6.4 11.8-11.6 19.5-15.4 11.4-5.7 23.4-7.8 35.8-6.9 7.2.5 14.3 1.9 21.2 4.7 7.6 3.1 14.2 7.3 20 13.1 1.1 1.1.9 1.2.2 2-5 5.8-10.1 11.4-15 17.3-1 1.2-1.3 1-2.2.2-4.3-3.5-8.7-6.8-13.7-9.2-3.3-1.6-6.8-2.4-10.5-3-4.4-.7-8.8-.2-13.1.2-6.5.6-12 3.9-16.6 8.3-7 6.7-10.8 15-11.8 24.9-.7 7.1.1 13.8 2.4 20.4z"/>
</svg>